<?xml version="1.0" encoding="utf-8"?>
<!-- Generator: Adobe Illustrator 23.1.1, SVG Export Plug-In . SVG Version: 6.00 Build 0)  -->
<svg version="1.1" id="Layer_1" xmlns="http://www.w3.org/2000/svg" xmlns:xlink="http://www.w3.org/1999/xlink" x="0px" y="0px"
	 viewBox="0 0 50 30" style="enable-background:new 0 0 50 30;" xml:space="preserve">
<polygon points="6.1,13.3 6.1,10.4 7.9,10.4 7.9,3.1 6.1,3.1 6.1,0 15.2,0 15.2,3.1 13.4,3.1 13.4,10.4 15.2,10.4 15.2,13.3 "/>
<path d="M23.9,13.3v-2.9h1.2v-3c0-0.9-0.6-1.3-1.5-1.3c-1,0-1.8,0.7-1.9,1.7c0,0,0,0.1,0,0.1v2.5H23v2.9h-7v-2.9h1.2V6.1H16V3.2h5.6
	v2c0.1-0.1,0.2-0.2,0.3-0.3c0.9-1.1,2.4-1.7,3.8-1.6c2.2,0,4,0.9,4,3.3v3.8h1.2v2.9L23.9,13.3z"/>
<path d="M42.5,7.4l-3.9,0.4c0-1.1-0.3-2.2-1.6-2.2c-1.7,0-1.8,1.4-1.8,2.7l0,0l0,0c0,1.4,0.1,2.8,1.8,2.8c0.8,0.1,1.6-0.5,1.7-1.4
	c0-0.1,0-0.1,0-0.2h3.9v0.3c-0.6,3.2-3.5,3.7-5.5,3.7c-3.2,0-6.4-1.6-6.4-5.2l0,0c0-3.6,3.2-5.2,6.4-5.2C37,3.2,42.1,2.9,42.5,7.4z"
	/>
<path d="M45.5,11.7c0,0.9-0.7,1.6-1.6,1.6c-0.9,0-1.6-0.7-1.6-1.6c0-0.9,0.7-1.6,1.6-1.6l0,0C44.8,10.1,45.5,10.8,45.5,11.7
	C45.5,11.7,45.5,11.7,45.5,11.7z"/>
<path d="M18.1,14.6c-3.9,0-6.1,2.6-6.1,7.7s2.2,7.7,6.1,7.7s6.1-2.6,6.1-7.7S21.9,14.6,18.1,14.6z M18.1,26.9
	c-1.4,0-1.7-1.4-1.7-4.6s0.3-4.6,1.7-4.6s1.7,1.4,1.7,4.6S19.5,26.9,18.1,26.9L18.1,26.9z"/>
<path d="M31,14.6c-3.9,0-6.1,2.6-6.1,7.7S27.1,30,31,30s6.1-2.6,6.1-7.7S34.8,14.6,31,14.6z M31,26.9c-1.4,0-1.7-1.4-1.7-4.6
	s0.3-4.6,1.7-4.6s1.7,1.4,1.7,4.6S32.4,26.9,31,26.9L31,26.9z"/>
<path d="M43.9,14.6c-3.9,0-6.1,2.6-6.1,7.7S40,30,43.9,30s6.1-2.6,6.1-7.7S47.7,14.6,43.9,14.6z M43.9,26.9c-1.4,0-1.7-1.4-1.7-4.6
	s0.3-4.6,1.7-4.6s1.7,1.4,1.7,4.6S45.3,26.9,43.9,26.9L43.9,26.9z"/>
<path d="M10.2,20.8c-1-0.8-2.2-1.3-3.5-1.2c-1,0-2.1,0.3-2.8,1l0.3-2.4h6.3v-3.5H1.3l-1,7l2.7,1.4c0.7-0.6,1.5-1,2.4-1
	c0.5,0,0.9,0.2,1.3,0.5c0.5,0.5,0.7,1.2,0.7,1.9c0,0.3,0,0.6-0.1,0.8c-0.1,0.9-0.9,1.5-1.8,1.4c-1.7,0-1.6-2.1-1.2-2.9l0,0L0,26.1
	c0.3,2.7,3.1,4,5.4,4c1.6,0,3.1-0.5,4.2-1.5c0.4-0.4,0.8-0.8,1.1-1.4c0.5-0.8,0.7-1.8,0.7-2.7C11.6,23.1,11.1,21.8,10.2,20.8z"/>
</svg>
