<svg width="433" height="45" xmlns="http://www.w3.org/2000/svg">
 <!-- Created with Method Draw - http://github.com/duopixel/Method-Draw/ -->
 <g>
  <title>Layer 1</title>
  <g id="svg_1">
   <path id="svg_21" d="m22.7,33.4l-22.7,0l0,-1.2l3.7,0l0,-30.5l-3.7,0l0,-1.3l12.2,0l0,1.2l-3.6,0l0,30.5l5.4,0c2.7,0 4.7,-1.5 5.9,-3.4c1.1,-1.9 2,-4.9 2.3,-6l1.2,0l-0.7,10.7z"/>
   <path id="svg_22" d="m35.5,34c-6.5,0 -9.6,-5.5 -9.6,-11.1c0,-5.5 3,-11.1 9.6,-11.1c6.5,0 9.6,5.2 9.6,11.1c0.1,6.2 -3.5,11.1 -9.6,11.1zm4.4,-17c-0.6,-2.6 -1.9,-4.1 -4.3,-4.1c-2.4,0 -3.7,1.6 -4.3,4.1c-0.3,1.3 -0.6,3.7 -0.6,5.9c0,2 0.2,4.6 0.6,5.9c0.7,2.6 1.9,4.1 4.3,4.1c2.4,0 3.6,-1.4 4.3,-4.1c0.4,-1.4 0.6,-4 0.6,-5.9c0,-1.8 -0.2,-4 -0.6,-5.9z"/>
   <path id="svg_23" d="m56,34c-3.6,0 -5.7,-1.9 -6.2,-1.9c-0.3,0 -0.7,1 -0.9,1.4l-1,0l0,-8l1.2,0c0.2,3.3 2.3,7.3 6.7,7.3c3,0 4.5,-1.2 4.5,-3.9c0,-3 -2.1,-3.5 -5.8,-4.4c-3.4,-0.8 -6.3,-2.1 -6.3,-6.5c0,-4 3.6,-6.3 7.2,-6.3s4.9,1.6 5.4,1.6c0.2,0 0.4,-0.6 0.6,-1l1,0l0,6.6l-1.1,0c-0.7,-2.8 -1.5,-6 -5.9,-6c-2.7,0 -4,1.6 -4,3.6c0,2.4 2.1,3.3 4.7,3.9c4.6,1 7.6,2.2 7.6,6.6c0.1,3.7 -2.7,7 -7.7,7z"/>
   <path id="svg_24" d="m92.3,33.4l0,-1.2l3.8,0l-3.1,-9.8l-9.9,0l-3.1,9.8l3.9,0l0,1.2l-8.6,0l0,-1.2l3.1,0l10.4,-31.9l2.1,0l10.3,31.9l3.1,0l0,1.2l-12,0zm-4.3,-26.2l-4.4,13.9l9,0l-4.6,-13.9z"/>
   <path id="svg_25" d="m117.2,33.4l0,-1.1l2.7,0l0,-15c0,-2.8 -1.7,-3.4 -3.2,-3.4c-2.5,0 -4.4,2.5 -5.3,3.7l0,14.8l2.7,0l0,1.1l-9.6,0l0,-1.1l2.5,0l0,-18.7l-2.6,0l0,-1.3l3.9,0l3,-0.4l0,3.9c2.3,-2.8 4.5,-4.1 7.6,-4.1c3.1,0 5.4,2.3 5.4,5.2l0,15.2l2.5,0l0,1.1l-9.6,0l0,0.1z"/>
   <path id="svg_26" d="m137.3,45.1c-4.7,0 -8.4,-2.5 -8.4,-6.2c0,-2 1.3,-3.5 3.1,-4.6c-1.7,-0.6 -3.1,-2 -3.1,-3.9c0,-3.1 2.3,-4.4 4.9,-5c-2.3,-1.2 -4,-3.5 -4,-6.4c0,-3.2 2.9,-7.2 8.1,-7.2c1.4,0 3,0.3 3.7,0.8c0,-0.3 0,-0.8 0,-1.1c0,-3 2.4,-4.2 3.9,-4.2c1.9,0 2.6,1.3 2.6,2.5s-0.8,2 -2.2,2c-1.4,0 -2.1,-0.8 -2.3,-2.5c-0.5,0.5 -0.9,1.2 -0.9,2.1c0,0.5 0,1.2 0.1,1.8c2.4,1.4 3.2,4.1 3.2,6.1c0,5.1 -4.8,7 -8.2,7.3c-1.7,0.1 -3.9,0.2 -4.7,0.4c-0.8,0.1 -2,0.4 -2,1.7c0,0.9 0.7,1.9 2.2,1.9l9.8,0c3.7,0 5.6,2.2 5.6,5c-0.2,5.7 -5.5,9.5 -11.4,9.5zm5.3,-10.7l-9.7,0c-1.1,1.2 -1.5,2.5 -1.5,3.9c0,2.7 2.1,5 6.3,5c6.2,0 8.5,-2.8 8.5,-6.1c0,-1.6 -0.9,-2.8 -3.6,-2.8zm-1.1,-18.5c-0.4,-1.7 -1.2,-3.1 -3.5,-3.1c-2.2,0 -3,1.3 -3.5,3.1c-0.2,0.8 -0.3,2.1 -0.3,3.2c0,1.2 0.1,2.3 0.3,3.2c0.4,1.7 1.2,3.1 3.5,3.1c2.2,0 3,-1.3 3.5,-3.1c0.2,-1 0.3,-2.3 0.3,-3.2c-0.1,-1.2 -0.1,-2.2 -0.3,-3.2z"/>
   <path id="svg_27" d="m159.3,32.5c3.4,0 5.7,-2.7 6.9,-5.8l1.3,0.5c-1.5,4 -4,6.8 -8.5,6.8c-5.6,0 -9.7,-3.4 -9.7,-11.2c0,-7 4.6,-10.9 9.6,-10.9c5,0 8.4,3.2 8.4,9.4l0,1l-13.3,0l0,0.7c0,2.6 0.2,4.5 0.5,5.7c0.7,2.3 2.3,3.8 4.8,3.8zm3.1,-15.8c-0.3,-2 -1.2,-3.8 -3.9,-3.8c-2.3,0 -3.5,1.7 -4,3.8c-0.3,1.5 -0.4,2.7 -0.4,4.1l8.5,0c0,-1.3 0,-2.9 -0.2,-4.1z"/>
   <path id="svg_28" d="m169.3,33.4l0,-1.1l2.5,0l0,-30.7l-2.9,0l0,-1.2l4.3,0l3,-0.4l0,32.2l2.4,0l0,1.1l-9.3,0l0,0.1z"/>
   <path id="svg_29" d="m191,32.5c3.4,0 5.7,-2.7 6.9,-5.8l1.3,0.5c-1.5,4 -4,6.8 -8.5,6.8c-5.6,0 -9.7,-3.4 -9.7,-11.2c0,-7 4.6,-10.9 9.6,-10.9c5,0 8.4,3.2 8.4,9.4l0,1l-13.3,0l0,0.7c0,2.6 0.2,4.5 0.5,5.7c0.7,2.3 2.3,3.8 4.8,3.8zm3.1,-15.8c-0.3,-2 -1.2,-3.8 -3.9,-3.8c-2.3,0 -3.5,1.7 -4,3.8c-0.3,1.5 -0.4,2.7 -0.4,4.1l8.5,0c0,-1.3 0,-2.9 -0.2,-4.1z"/>
   <path id="svg_30" d="m209.5,34c-3.6,0 -5.7,-1.9 -6.2,-1.9c-0.3,0 -0.7,1 -0.9,1.4l-1,0l0,-8l1.2,0c0.2,3.3 2.3,7.3 6.7,7.3c3,0 4.5,-1.2 4.5,-3.9c0,-3 -2.1,-3.5 -5.8,-4.4c-3.4,-0.8 -6.3,-2.1 -6.3,-6.5c0,-4 3.6,-6.3 7.2,-6.3s4.9,1.6 5.4,1.6c0.2,0 0.4,-0.6 0.6,-1l1,0l0,6.6l-1.1,0c-0.7,-2.8 -1.5,-6 -5.9,-6c-2.7,0 -4,1.6 -4,3.6c0,2.4 2.1,3.3 4.7,3.9c4.6,1 7.6,2.2 7.6,6.6c0.1,3.7 -2.7,7 -7.7,7z"/>
   <path id="svg_31" d="m243.2,33.4l-13.2,0l0,-1.2l3.7,0l0,-30.5l-3.7,0l0,-1.3l13.2,0c8.2,0 13.9,7.1 13.9,16.5s-5.7,16.5 -13.9,16.5zm7.6,-25.5c-0.8,-3.6 -3.6,-6.3 -7.7,-6.3l-4.5,0l0,30.5l4.5,0c4.2,0 6.9,-2.5 7.7,-6.3c0.3,-1.4 0.9,-3.6 0.9,-8.9c0,-4.9 -0.5,-7.6 -0.9,-9z"/>
   <path id="svg_32" d="m280,31c-1.1,1.8 -2.4,2.9 -4.5,2.9c-2.7,0 -3.5,-1.7 -3.6,-3.4c-1.7,2.3 -3.9,3.4 -6.4,3.4c-2.4,0 -5.6,-1.1 -5.6,-5.5c0,-6.1 7.2,-7.1 11.9,-7.1l0,-4.7c0,-2 -1.4,-3.6 -4.1,-3.6c-1.8,0 -2.9,0.8 -3.7,1.6l0,0.2c1.4,0 2,1.2 2,2.3c0,1.1 -1.2,2.1 -2.5,2.1c-1.3,0 -2.6,-1 -2.6,-2.5c0,-2.7 3.7,-5 7.3,-5c5.8,0 7.8,2.8 7.8,5l0,13.1c0,0.9 0.2,1.8 1.5,1.8c0.8,0 1.5,-1 1.7,-1.3l0.8,0.7zm-8.2,-8.6c-2.1,0 -5.7,-0.1 -7.1,2.7c-0.3,0.7 -0.4,1.6 -0.4,2.7c0,1.1 0.1,2.2 0.3,2.8c0.3,1 1.2,1.7 2.9,1.7c1.8,0 3.6,-2 4.3,-3.2l0,-6.7z"/>
   <path id="svg_33" d="m280.7,33.4l0,-1.1l2.5,0l0,-18.7l-2.6,0l0,-1.2l4,0l3,-0.4l0,20.2l2.4,0l0,1.1l-9.3,0l0,0.1zm4.6,-26.9c-1.5,0 -2.7,-1.2 -2.7,-2.6s1.2,-2.6 2.7,-2.6c1.5,0 2.7,1.2 2.7,2.6s-1.2,2.6 -2.7,2.6z"/>
   <path id="svg_34" d="m292.2,33.4l0,-1.1l2.5,0l0,-30.7l-2.9,0l0,-1.2l4.3,0l3,-0.4l0,32.2l2.4,0l0,1.1l-9.3,0l0,0.1z"/>
   <path id="svg_35" d="m321.1,13.6l-10.5,27.9c-1,2.7 -2.5,3.5 -4.3,3.5c-1.6,0 -2.6,-1.3 -2.6,-2.6c0,-1.3 1,-2.5 2.4,-2.5c1.4,0 2.3,1 2.5,1.9l0.3,0c0.6,-1.1 2.6,-6.3 3.3,-8.5l-8.1,-19.8l-2.3,0l0,-1.1l10.1,0l0,1.1l-3.2,0l5.8,14l5,-14l-3.1,0l0,-1.1l7.2,0l0,1.1l-2.5,0l0,0.1z"/>
   <path id="svg_36" d="m359.7,1.6l0,32.1l-1.7,0l-17.9,-30.8l0,29.2l3.7,0l0,1.2l-9,0l0,-1.2l3.7,0l0,-30.5l-3.7,0l0,-1.2l9.3,0l14,23.9l0,-22.7l-3.7,0l0,-1.2l9.1,0l0,1.2l-3.8,0z"/>
   <path id="svg_37" d="m374.6,32.5c3.4,0 5.7,-2.7 6.9,-5.8l1.3,0.5c-1.5,4 -4,6.8 -8.5,6.8c-5.6,0 -9.7,-3.4 -9.7,-11.2c0,-7 4.6,-10.9 9.6,-10.9c5,0 8.4,3.2 8.4,9.4l0,1l-13.3,0l0,0.7c0,2.6 0.2,4.5 0.5,5.7c0.7,2.3 2.3,3.8 4.8,3.8zm3.1,-15.8c-0.3,-2 -1.2,-3.8 -3.9,-3.8c-2.3,0 -3.5,1.7 -4,3.8c-0.3,1.5 -0.4,2.7 -0.4,4.1l8.5,0c0,-1.3 0,-2.9 -0.2,-4.1z"/>
   <path id="svg_38" d="m413.7,13.6l-6.8,19.9l-2.4,0l-4.7,-15.2l-4.9,15.2l-2.4,0l-6.6,-19.9l-2.6,0l0,-1.2l9.8,0l0,1.1l-2.5,0l4.6,14.6l3.8,-11.8l-0.9,-2.9l-2.4,0l0,-1l9.3,0l0,1.1l-2.7,0l4.8,14.9l4.9,-14.9l-3.3,0l0,-1.1l7.4,0l0,1.1l-2.4,0l0,0.1z"/>
   <path id="svg_39" d="m425.2,34c-3.6,0 -5.7,-1.9 -6.2,-1.9c-0.3,0 -0.7,1 -0.9,1.4l-1,0l0,-8l1.2,0c0.2,3.3 2.3,7.3 6.7,7.3c3,0 4.5,-1.2 4.5,-3.9c0,-3 -2.1,-3.5 -5.8,-4.4c-3.4,-0.8 -6.3,-2.1 -6.3,-6.5c0,-4 3.6,-6.3 7.2,-6.3c3.6,0 4.9,1.6 5.4,1.6c0.2,0 0.4,-0.6 0.6,-1l1,0l0,6.6l-1,0c-0.7,-2.8 -1.5,-6 -5.9,-6c-2.7,0 -4,1.6 -4,3.6c0,2.4 2.1,3.3 4.7,3.9c4.6,1 7.6,2.2 7.6,6.6c0,3.7 -2.7,7 -7.8,7z"/>
  </g>
 </g>
</svg>