<?xml version="1.0" encoding="UTF-8" standalone="no"?>
<svg
   xmlns:dc="http://purl.org/dc/elements/1.1/"
   xmlns:cc="http://creativecommons.org/ns#"
   xmlns:rdf="http://www.w3.org/1999/02/22-rdf-syntax-ns#"
   xmlns:svg="http://www.w3.org/2000/svg"
   xmlns="http://www.w3.org/2000/svg"
   xmlns:sodipodi="http://sodipodi.sourceforge.net/DTD/sodipodi-0.dtd"
   xmlns:inkscape="http://www.inkscape.org/namespaces/inkscape"
   inkscape:version="1.0 (4035a4fb49, 2020-05-01)"
   height="36.454472"
   width="72.001999"
   sodipodi:docname="sticky.svg"
   xml:space="preserve"
   viewBox="0 0 72.002 36.454472"
   y="0px"
   x="0px"
   id="Layer_1"
   version="1.1"><metadata
   id="metadata33"><rdf:RDF><cc:Work
       rdf:about=""><dc:format>image/svg+xml</dc:format><dc:type
         rdf:resource="http://purl.org/dc/dcmitype/StillImage" /><dc:title>thestreet_logo</dc:title></cc:Work></rdf:RDF></metadata><defs
   id="defs31" /><sodipodi:namedview
   viewbox-width="88.002"
   inkscape:current-layer="Layer_1"
   inkscape:window-maximized="1"
   inkscape:window-y="-6"
   inkscape:window-x="-6"
   inkscape:cy="19.855163"
   inkscape:cx="-404.30764"
   inkscape:zoom="0.78071429"
   fit-margin-bottom="10"
   fit-margin-right="0"
   fit-margin-left="0"
   fit-margin-top="10"
   showgrid="false"
   id="namedview29"
   inkscape:window-height="1058"
   inkscape:window-width="1620"
   inkscape:pageshadow="2"
   inkscape:pageopacity="0"
   guidetolerance="10"
   gridtolerance="10"
   objecttolerance="10"
   borderopacity="1"
   bordercolor="#666666"
   pagecolor="#ffffff"
   inkscape:document-rotation="0" />
<style
   id="style2"
   type="text/css">
	.st0{fill:#010101;}
</style>
<title
   id="title4">thestreet_logo</title>
<g
   transform="matrix(0.1104321,0,0,0.1104321,-41.301605,-1.6726625)"
   id="Layer_2_1_">
	<g
   id="Layer_1-2">
		<path
   id="path6"
   d="m 448.8,108.7 h -69.1 c -3.1,0 -5.7,2.5 -5.7,5.6 v 0 11.3 c 0,3.1 2.6,5.6 5.7,5.6 h 16.9 c 1.9,0 3.4,1.6 3.4,3.5 v 0 0 111.4 c 0,3.2 2.5,5.7 5.7,5.7 h 17.1 c 3.1,0 5.6,-2.5 5.7,-5.7 V 134.7 c 0,-1.8 1.5,-3.4 3.4,-3.4 H 449 c 3.1,0 5.7,-2.5 5.7,-5.7 v -11.3 c -0.2,-2.9 -2.7,-5.5 -5.9,-5.6 0.1,0 0,0 0,0 z"
   class="st0" />
		<path
   id="path8"
   d="m 527.8,160.1 c -3.2,-9.3 -11.4,-14.7 -21.1,-14.7 -6.8,0 -13.3,2.6 -18.4,7.3 -0.3,0.3 -0.7,0.6 -1.1,0.7 v 0 c -0.1,-0.3 -0.2,-0.8 -0.2,-1.1 l -0.1,-37.8 c 0,-3.1 -2.5,-5.7 -5.7,-5.7 H 467 c -3.1,0 -5.6,2.5 -5.6,5.7 v 131.7 c 0,3.1 2.5,5.6 5.6,5.7 h 14.7 c 3.1,0 5.6,-2.5 5.7,-5.7 v -69.4 c -0.1,-1.4 0,-2.6 0.3,-3.9 0.8,-3.6 4.1,-6.3 7.9,-6.2 2.8,-0.1 5.6,1.4 7,3.9 0.7,1.7 0.7,3.3 0.7,7.5 v 68 0 c 0,3.1 2.5,5.7 5.7,5.7 h 14.7 c 3.1,0 5.7,-2.5 5.7,-5.7 v -75.5 c 0,-3.4 -0.6,-7 -1.6,-10.5 z"
   class="st0" />
		<path
   id="path10"
   d="m 565.7,206.1 h 31.5 c 3.2,0 5.7,-2.5 5.7,-5.7 v 0 -24.6 c 0,-7.9 -1,-11.4 -2.8,-15 -3.2,-6.5 -12.8,-15.2 -29.8,-15.2 -12.2,0 -25.9,4.4 -31.2,17 -1.7,4.6 -2.6,9.3 -2.6,14.2 v 43.1 c 0.1,4.6 0.7,9.2 1.8,13.7 2.8,9.5 10.4,20.3 31.6,20.3 h 0.2 c 13.7,0 27.2,-4.1 31.3,-19.1 0.9,-3.1 1.3,-6.3 1,-9.5 v -4.1 c -0.1,-3 -2.6,-5.4 -5.7,-5.2 h -13.8 c -3.1,0.1 -5.6,2.5 -5.7,5.7 0,2.3 -0.2,4.4 -0.7,6.6 -0.7,3 -3.4,5 -6.5,4.8 -3.3,0.2 -6.3,-1.8 -7.2,-5 -0.6,-1.6 -0.6,-2.8 -0.6,-6.4 v -12.2 c 0.2,-2.1 1.7,-3.4 3.5,-3.4 z m -3.4,-30.6 c -0.1,-1.9 0.3,-3.8 1,-5.6 1,-1.9 2.6,-3.4 6.6,-3.5 3.5,0 5.1,1.4 6,3.1 0.7,1.7 1,3.4 1,5.2 v 8.7 c 0,1.8 -1.5,3.4 -3.4,3.4 h -7.9 c -1.8,0 -3.4,-1.5 -3.4,-3.4 v -7.9 z"
   class="st0" />
		<path
   id="path12"
   d="m 686.2,186.4 c -3.3,-4.3 -7.3,-8.1 -11.9,-11.2 l -25.1,-17.3 c -1.9,-1.1 -3.6,-2.6 -5.1,-4.3 -2.3,-3.2 -2.6,-9.2 -2.6,-11.7 v -1.3 c 0.2,-11.4 4.8,-12.7 10.5,-12.9 9.3,0.1 10.1,5.1 10.4,9 v 9.8 c 0,3.2 2.5,5.7 5.7,5.7 H 685 c 3.2,0 5.7,-2.5 5.7,-5.7 v 0 0 -9.3 c 0.2,-4.2 -0.5,-8.3 -2.3,-12.2 -7.9,-19.4 -30.9,-19.3 -35.1,-19.3 -2.8,0 -27.5,-0.2 -35.9,17.8 -3.3,7 -3.5,15.8 -3.5,19 v 0.8 c 0,12.1 2.1,17.8 5.1,22.9 3.6,5.9 6.7,8.3 12.1,12 l 24.5,16.5 c 2.2,1.4 4.1,3.2 5.7,5.2 2.4,3.4 2.6,8.1 2.6,10.7 v 1.6 c 0,9.7 -0.2,15.5 -3.4,17.9 -1.6,1.5 -3.9,2.4 -8.3,2.4 -2.6,0.1 -5.1,-0.6 -7.4,-1.8 -3.8,-2.4 -4.1,-6.6 -4.1,-11.2 v -13.9 c 0,-3.1 -2.5,-5.7 -5.7,-5.7 h -16.6 c -3.1,0 -5.7,2.5 -5.7,5.7 v 16 c -0.2,5.1 0.8,10.3 3,14.9 1.7,4 4.3,7.4 7.8,10 8.7,6.8 19.6,8.2 29.6,8.2 v 0 c 24.3,0.1 34.3,-10.6 37.6,-22.3 1.5,-5.6 1.5,-10.3 1.5,-21.1 v -4.6 c -0.1,-7.4 -0.6,-13.3 -6,-20.3 z"
   class="st0" />
		<path
   id="path14"
   d="m 745.5,234.3 c -0.3,-1 -1.3,-1.8 -2.4,-1.9 -0.1,0 -0.2,0 -0.2,0 -0.6,0.1 -1.3,0.1 -1.8,0.1 -4.1,0 -8,-0.7 -9.1,-4.8 -0.6,-1.5 -0.6,-2.1 -0.6,-5.2 v -53.8 c 0,-1.8 1.5,-3.4 3.4,-3.4 h 5 c 3.1,0 5.7,-2.5 5.7,-5.6 v 0 -6.6 c 0,-3.1 -2.5,-5.7 -5.7,-5.7 h -5.1 c -1.8,0 -3.4,-1.5 -3.4,-3.3 v 0 0 -19.8 c 0,-3.1 -2.5,-5.7 -5.7,-5.7 H 711 c -3.1,0 -5.7,2.5 -5.7,5.7 v 19.8 c 0,1.8 -1.5,3.4 -3.4,3.4 v 0 h -3.6 c -3.1,0 -5.7,2.5 -5.7,5.7 v 6.7 c 0,3.1 2.5,5.7 5.7,5.7 h 3.9 c 1.8,0 3.4,1.6 3.4,3.4 v 61.4 c 0,4 0.2,8.3 2.1,12.2 3.2,7.2 11.1,10.1 24.7,10.1 h 0.3 c 2.6,0 5.2,-0.1 7.9,-0.5 3.2,-0.6 5.5,-3.3 5.5,-6.5 v -8 c 0.1,-1 -0.2,-2.2 -0.6,-3.4 z"
   class="st0" />
		<path
   id="path16"
   d="m 803.7,151.1 c 0,-2.8 -2.3,-5.2 -5.1,-5.4 -0.2,0 -0.3,0 -0.6,0 -6.4,0.6 -12.2,3.9 -16,9.1 -0.6,0.7 -1,1.4 -1.5,2.2 v -4 0 c 0,-3.1 -2.5,-5.6 -5.6,-5.6 h -14.6 c -3.1,0 -5.7,2.5 -5.7,5.7 V 246 c 0,3.1 2.5,5.7 5.6,5.7 v 0 h 14.6 c 3.1,0 5.7,-2.5 5.7,-5.7 v 0 0 -56.8 c 0,-6.5 0.2,-13.3 5.9,-17.2 2.5,-1.5 5.4,-2.3 8.3,-2.2 1.3,0 2.5,0.1 3.8,0.3 l 0.2,-1.1 v 0 l -0.2,1.1 c 0.3,0.1 0.7,0.1 1,0.1 1.1,0 2.2,-0.5 3,-1.3 0.8,-0.9 1.3,-2.1 1.1,-3.2 v -14.6 z"
   class="st0" />
		<path
   id="path18"
   d="m 836.7,206.1 h 31.5 c 3.2,0 5.7,-2.6 5.7,-5.7 v 0 -24.6 c 0,-7.9 -1,-11.4 -2.8,-15 -3.2,-6.5 -12.8,-15.2 -29.8,-15.2 -12.2,0 -25.9,4.4 -31.1,17 -1.8,4.6 -2.7,9.3 -2.7,14.2 v 43.1 c 0.1,4.6 0.8,9.2 1.8,13.7 2.8,9.5 10.5,20.4 31.8,20.3 h 0.2 c 13.6,0 27,-4.2 31.1,-19.1 0.8,-3.1 1.1,-6.3 1,-9.5 v -4.1 c -0.1,-3 -2.6,-5.4 -5.7,-5.2 h -13.8 c -3.1,0 -5.6,2.5 -5.7,5.7 0,2.3 -0.2,4.4 -0.7,6.6 -0.7,3 -3.5,5 -6.5,4.8 -3.2,0.2 -6.2,-1.8 -7.1,-4.9 -0.6,-1.6 -0.6,-2.8 -0.6,-6.5 v -12.2 c 0.1,-2.1 1.5,-3.4 3.4,-3.4 z m 4.2,-39.6 c 3.6,0 5.1,1.4 6,3.1 0.7,1.7 1.1,3.4 1,5.2 v 8.7 c 0,1.8 -1.6,3.4 -3.4,3.4 h -7.9 c -1.8,0 -3.4,-1.5 -3.4,-3.3 v 0 -8.1 c -0.1,-1.9 0.3,-3.8 1,-5.6 1.1,-1.8 2.8,-3.4 6.7,-3.4 z"
   class="st0" />
		<path
   id="path20"
   d="m 910,206.1 h 31.5 c 3.1,0 5.7,-2.5 5.7,-5.7 v 0 -24.6 c 0,-7.9 -1,-11.4 -2.8,-15 -3.2,-6.5 -12.8,-15.2 -29.8,-15.2 -12.2,0 -25.9,4.4 -31.1,17 -1.7,4.6 -2.6,9.3 -2.6,14.2 v 43.1 c 0.1,4.6 0.8,9.2 1.8,13.7 2.8,9.5 10.5,20.4 31.8,20.3 h 0.2 c 13.6,0 27,-4.2 31.1,-19.1 0.8,-3.1 1.3,-6.3 1,-9.5 v -4.1 c -0.1,-3 -2.6,-5.4 -5.7,-5.2 h -13.9 c -3.1,0 -5.6,2.5 -5.7,5.7 0,2.3 -0.2,4.4 -0.7,6.6 -0.7,3 -3.4,5 -6.5,4.8 -3.2,0.2 -6.2,-1.9 -7.1,-5 -0.6,-1.6 -0.6,-2.8 -0.6,-6.4 v -12.2 c 0.1,-1.9 1.5,-3.4 3.4,-3.4 z m 4.2,-39.6 c 3.6,0 5.1,1.4 6,3.1 0.8,1.7 1.1,3.4 1,5.2 0,0.2 0,0.5 0,0.7 v 8 c 0,1.8 -1.6,3.4 -3.4,3.4 H 910 c -1.8,0 -3.4,-1.5 -3.4,-3.4 v -8.1 c -0.1,-1.9 0.3,-3.8 1,-5.6 1,-1.7 2.7,-3.3 6.6,-3.3 z"
   class="st0" />
		<path
   id="path22"
   d="m 1002.1,234.3 c -0.3,-1 -1.3,-1.8 -2.4,-1.9 h -0.2 c -0.6,0.1 -1.3,0.1 -1.8,0.1 -4.1,0 -8,-0.7 -9.1,-4.8 -0.6,-1.5 -0.6,-2.1 -0.6,-5.2 v -53.8 c 0,-1.8 1.5,-3.4 3.4,-3.4 h 5.1 c 3.1,0 5.7,-2.5 5.7,-5.7 v 0 0 -6.6 c 0,-3.2 -2.5,-5.7 -5.7,-5.7 v 0 h -5.1 c -1.8,0 -3.4,-1.5 -3.4,-3.4 V 124 c 0,-3.1 -2.5,-5.7 -5.7,-5.7 h -14.5 c -3.1,0 -5.7,2.5 -5.7,5.7 v 19.8 c 0,1.8 -1.5,3.4 -3.4,3.4 v 0 h -3.5 c -3.2,0 -5.7,2.5 -5.7,5.7 v 0 0 6.6 c 0,3.1 2.5,5.7 5.7,5.7 h 3.9 c 1.8,0 3.4,1.6 3.4,3.4 V 230 c 0,4 0.2,8.3 2.1,12.2 3.3,7.2 11.1,10.1 24.7,10.1 h 0.2 c 2.6,0 5.2,-0.1 7.9,-0.5 3.2,-0.6 5.5,-3.3 5.5,-6.5 v -8 c -0.3,-0.6 -0.4,-1.8 -0.8,-3 z"
   class="st0" />
		<path
   id="path24"
   d="m 1019.3,252.9 c -3.6,-0.1 -6.6,-3.1 -6.5,-6.7 0.1,-3.6 3.1,-6.6 6.7,-6.5 3.6,0.1 6.6,3.1 6.5,6.7 -0.1,3.5 -3,6.5 -6.5,6.5 z m 0,-12.7 c -3.3,0 -6,2.6 -6,6 0,3.3 2.6,6 6,6 3.3,0 6,-2.6 6,-5.9 0.1,-3.3 -2.4,-6 -5.7,-6.2 z m 0,1.7 c 0.7,0 1.4,0.1 2.1,0.3 0.8,0.6 1.1,1.4 1.1,2.3 0,1 -0.6,1.9 -1.5,2.3 l 1.5,3.5 h -1.9 l -1.1,-3.2 h -1.1 v 3.2 h -1.7 v -8.4 z m -1.1,3.7 h 1.1 c 0.9,0 1.4,-0.3 1.4,-1.1 0,-0.8 -0.3,-1 -1.3,-1 h -1.1 v 2.2 h -0.1 z"
   class="st0" />
	</g>
</g>
</svg>
