<svg width="26" height="29" viewBox="0 0 26 29" fill="none" xmlns="http://www.w3.org/2000/svg">
<path d="M1.33448 15.6284C1.12923 15.4436 0.813082 15.4603 0.628353 15.6655C0.443623 15.8708 0.460263 16.1869 0.665518 16.3716L1.33448 15.6284ZM24.5 29C24.7761 29 25 28.7761 25 28.5V24C25 23.7239 24.7761 23.5 24.5 23.5C24.2239 23.5 24 23.7239 24 24V28H20C19.7239 28 19.5 28.2239 19.5 28.5C19.5 28.7761 19.7239 29 20 29H24.5ZM11.6463 24.5691L11.369 24.1531L11.6463 24.5691ZM0.665518 16.3716L10.0882 24.852L10.7571 24.1087L1.33448 15.6284L0.665518 16.3716ZM11.9237 24.9852L16.5952 21.8708L16.0405 21.0387L11.369 24.1531L11.9237 24.9852ZM17.2261 21.9332L24.1464 28.8536L24.8536 28.1464L17.9332 21.2261L17.2261 21.9332ZM16.5952 21.8708C16.7935 21.7386 17.0576 21.7647 17.2261 21.9332L17.9332 21.2261C17.4276 20.7205 16.6355 20.6421 16.0405 21.0387L16.5952 21.8708ZM10.0882 24.852C10.5977 25.3106 11.3533 25.3654 11.9237 24.9852L11.369 24.1531C11.1788 24.2799 10.927 24.2616 10.7571 24.1087L10.0882 24.852Z" fill="black"/>
<path d="M17.5 9.5C17.5 8.83333 17.1 7.5 15.5 7.5C13.9 7.5 13.5 8.83333 13.5 9.5C13.5 10.1667 13.9 11.5 15.5 11.5C17.1 11.5 17.5 12.8333 17.5 13.5C17.5 14.1667 17.1 15.5 15.5 15.5C13.9 15.5 13.5 14.1667 13.5 13.5" stroke="black" stroke-linecap="round"/>
<line x1="15.5" y1="7.5" x2="15.5" y2="6.5" stroke="black" stroke-linecap="round"/>
<line x1="15.5" y1="16.5" x2="15.5" y2="15.5" stroke="black" stroke-linecap="round"/>
<path d="M8.5 18.5996C6.35767 16.7655 5 14.0413 5 11C5 5.47715 9.47715 1 15 1C20.5228 1 25 5.47715 25 11C25 14.1548 23.5391 16.9685 21.2568 18.8012" stroke="black" stroke-linecap="round"/>
</svg>
