<svg width="27" height="26" viewBox="0 0 27 26" fill="none" xmlns="http://www.w3.org/2000/svg">
<path d="M2.5 10.5V24C2.5 24.5523 2.94772 25 3.5 25H23.5C24.0523 25 24.5 24.5523 24.5 24V10.5M24.5 10.5H25.5C26.0523 10.5 26.5 10.0523 26.5 9.5V7C26.5 6.44772 26.0523 6 25.5 6H2C1.44772 6 1 6.44772 1 7V9.5C1 10.0523 1.44772 10.5 2 10.5H20.5M24.5 10.5H23" stroke="black"/>
<path d="M13.5 10.5V25" stroke="black"/>
<path d="M2.5 17.5H24.5" stroke="black"/>
<path d="M11 1C12.5635 1 13.2103 3.03717 13.4182 4.72263C13.4978 5.36831 12.8889 5.84548 12.2658 5.65847C10.86 5.23659 9.0996 4.59957 8.50002 4C7.50002 3 8.50002 1 11 1Z" stroke="black"/>
<path d="M16.6168 1C15.0533 1 14.4065 3.03717 14.1986 4.72263C14.119 5.36831 14.7279 5.84548 15.3511 5.65847C16.7568 5.23659 18.5172 4.59957 19.1168 4C20.1168 3 19.1168 1 16.6168 1Z" stroke="black"/>
</svg>
